<svg width="34" height="35" viewBox="0 0 34 35" fill="none" xmlns="http://www.w3.org/2000/svg">
<path d="M18.4558 3.80566C20.0496 3.80991 20.8585 3.81841 21.5569 3.83825L21.8318 3.84816C22.1491 3.8595 22.4622 3.87366 22.8404 3.89066C24.3478 3.9615 25.3763 4.1995 26.2787 4.54941C27.2137 4.90925 28.0013 5.39658 28.789 6.18283C29.5094 6.89102 30.0668 7.74766 30.4224 8.69316C30.7723 9.59558 31.0103 10.6241 31.0812 12.1328C31.0982 12.5097 31.1123 12.8227 31.1237 13.1415L31.1322 13.4163C31.1534 14.1133 31.1619 14.9222 31.1648 16.516L31.1662 17.5728V19.4287C31.1697 20.462 31.1588 21.4953 31.1336 22.5283L31.1251 22.8032C31.1138 23.1219 31.0996 23.435 31.0826 23.8118C31.0118 25.3206 30.7709 26.3477 30.4224 27.2515C30.0678 28.1975 29.5103 29.0544 28.789 29.7618C28.0806 30.4819 27.224 31.0393 26.2787 31.3952C25.3763 31.7452 24.3478 31.9832 22.8404 32.054C22.5043 32.0698 22.1681 32.084 21.8318 32.0965L21.5569 32.105C20.8585 32.1248 20.0496 32.1347 18.4558 32.1376L17.399 32.139H15.5446C14.5108 32.1426 13.477 32.1317 12.4435 32.1064L12.1687 32.0979C11.8324 32.0852 11.4962 32.0705 11.16 32.054C9.65268 31.9832 8.62418 31.7452 7.72035 31.3952C6.77496 31.0402 5.91866 30.4827 5.21143 29.7618C4.49041 29.0539 3.9325 28.1972 3.5766 27.2515C3.22668 26.3491 2.98868 25.3206 2.91785 23.8118C2.90207 23.4757 2.8879 23.1395 2.87535 22.8032L2.86827 22.5283C2.84216 21.4953 2.83035 20.462 2.83285 19.4287V16.516C2.82889 15.4827 2.83928 14.4494 2.86402 13.4163L2.87393 13.1415C2.88527 12.8227 2.89943 12.5097 2.91643 12.1328C2.98727 10.6241 3.22527 9.597 3.57518 8.69316C3.93093 7.7467 4.48995 6.88978 5.21285 6.18283C5.9199 5.46242 6.77564 4.90498 7.72035 4.54941C8.62418 4.1995 9.65126 3.9615 11.16 3.89066C11.5368 3.87366 11.8513 3.8595 12.1687 3.84816L12.4435 3.83966C13.4765 3.81449 14.5099 3.80363 15.5432 3.80708L18.4558 3.80566ZM16.9995 10.889C15.1209 10.889 13.3192 11.6353 11.9908 12.9637C10.6625 14.292 9.91618 16.0937 9.91618 17.9723C9.91618 19.8509 10.6625 21.6526 11.9908 22.981C13.3192 24.3094 15.1209 25.0557 16.9995 25.0557C18.8781 25.0557 20.6798 24.3094 22.0082 22.981C23.3366 21.6526 24.0828 19.8509 24.0828 17.9723C24.0828 16.0937 23.3366 14.292 22.0082 12.9637C20.6798 11.6353 18.8781 10.889 16.9995 10.889ZM16.9995 13.7223C17.5576 13.7222 18.1103 13.8321 18.626 14.0456C19.1416 14.2591 19.6102 14.572 20.0049 14.9666C20.3996 15.3612 20.7128 15.8297 20.9264 16.3453C21.1401 16.8609 21.2501 17.4135 21.2502 17.9716C21.2503 18.5297 21.1405 19.0824 20.927 19.5981C20.7135 20.1138 20.4005 20.5823 20.0059 20.977C19.6113 21.3717 19.1429 21.6849 18.6273 21.8985C18.1117 22.1122 17.559 22.2222 17.0009 22.2223C15.8738 22.2223 14.7928 21.7746 13.9957 20.9775C13.1987 20.1805 12.7509 19.0995 12.7509 17.9723C12.7509 16.8452 13.1987 15.7642 13.9957 14.9671C14.7928 14.1701 15.8738 13.7223 17.0009 13.7223M24.4384 8.764C23.9688 8.764 23.5184 8.95057 23.1863 9.28266C22.8542 9.61476 22.6676 10.0652 22.6676 10.5348C22.6676 11.0045 22.8542 11.4549 23.1863 11.787C23.5184 12.1191 23.9688 12.3057 24.4384 12.3057C24.9081 12.3057 25.3585 12.1191 25.6906 11.787C26.0227 11.4549 26.2093 11.0045 26.2093 10.5348C26.2093 10.0652 26.0227 9.61476 25.6906 9.28266C25.3585 8.95057 24.9081 8.764 24.4384 8.764Z" fill="white"/>
</svg>
