<svg width="29" height="28" viewBox="0 0 29 28" fill="none" xmlns="http://www.w3.org/2000/svg">
<path d="M25.7778 0.472656C26.6324 0.472656 27.452 0.788727 28.0562 1.35134C28.6605 1.91394 29 2.67701 29 3.47266V24.4727C29 25.2683 28.6605 26.0314 28.0562 26.594C27.452 27.1566 26.6324 27.4727 25.7778 27.4727H3.22222C2.36764 27.4727 1.54805 27.1566 0.943767 26.594C0.339483 26.0314 0 25.2683 0 24.4727V3.47266C0 2.67701 0.339483 1.91394 0.943767 1.35134C1.54805 0.788727 2.36764 0.472656 3.22222 0.472656H25.7778ZM24.9722 23.7227V15.7727C24.9722 14.4757 24.4189 13.232 23.4339 12.3149C22.4489 11.3979 21.113 10.8827 19.72 10.8827C18.3506 10.8827 16.7556 11.6627 15.9822 12.8327V11.1677H11.4872V23.7227H15.9822V16.3277C15.9822 15.1727 16.9811 14.2277 18.2217 14.2277C18.8199 14.2277 19.3936 14.4489 19.8166 14.8427C20.2396 15.2366 20.4772 15.7707 20.4772 16.3277V23.7227H24.9722ZM6.25111 8.81266C6.96896 8.81266 7.65742 8.54716 8.16501 8.07457C8.67261 7.60197 8.95778 6.961 8.95778 6.29266C8.95778 4.89766 7.74944 3.75766 6.25111 3.75766C5.52899 3.75766 4.83644 4.02474 4.32582 4.50014C3.8152 4.97554 3.52833 5.62033 3.52833 6.29266C3.52833 7.68766 4.75278 8.81266 6.25111 8.81266ZM8.49056 23.7227V11.1677H4.02778V23.7227H8.49056Z" fill="white"/>
</svg>
