<svg width="34" height="34" viewBox="0 0 34 34" fill="none" xmlns="http://www.w3.org/2000/svg">
<path d="M17 3.25C9.18004 3.25 2.83337 9.41 2.83337 17C2.83337 24.59 9.18004 30.75 17 30.75C24.82 30.75 31.1667 24.59 31.1667 17C31.1667 9.41 24.82 3.25 17 3.25ZM23.5734 12.6C23.3609 14.7725 22.44 20.0525 21.9725 22.4863C21.7742 23.5175 21.3775 23.8613 21.0092 23.9025C20.1875 23.9713 19.5642 23.38 18.7709 22.8713C17.5242 22.0738 16.8159 21.5788 15.6117 20.8088C14.2092 19.915 15.1159 19.42 15.9234 18.6225C16.1359 18.4163 19.7625 15.2125 19.8334 14.9238C19.8432 14.88 19.8419 14.8346 19.8296 14.7915C19.8172 14.7483 19.7942 14.7088 19.7625 14.6763C19.6775 14.6075 19.5642 14.635 19.465 14.6488C19.3375 14.6763 17.3542 15.955 13.4867 18.485C12.92 18.8563 12.41 19.0488 11.9567 19.035C11.4467 19.0213 10.4834 18.76 9.76087 18.5263C8.86837 18.2513 8.17421 18.1 8.23087 17.6188C8.25921 17.3713 8.61337 17.1238 9.27921 16.8625C13.4159 15.1163 16.1642 13.9613 17.5384 13.4113C21.4767 11.8163 22.2842 11.5413 22.8225 11.5413C22.9359 11.5413 23.205 11.5688 23.375 11.7063C23.5167 11.8162 23.5592 11.9675 23.5734 12.0775C23.5592 12.16 23.5875 12.4075 23.5734 12.6Z" fill="#525252"/>
</svg>
