<svg width="34" height="34" viewBox="0 0 34 34" fill="none" xmlns="http://www.w3.org/2000/svg">
<path d="M17.0014 2.83301C24.8257 2.83301 31.1681 9.17543 31.1681 16.9997C31.1681 24.8239 24.8257 31.1663 17.0014 31.1663C14.4978 31.1704 12.0383 30.5078 9.87557 29.2468L2.8404 31.1663L4.75574 24.1283C3.49362 21.9649 2.83055 19.5043 2.83474 16.9997C2.83474 9.17543 9.17715 2.83301 17.0014 2.83301ZM12.1734 10.3413L11.8901 10.3527C11.7066 10.3638 11.5274 10.412 11.3631 10.4943C11.2094 10.5814 11.0691 10.6902 10.9466 10.8173C10.7766 10.9774 10.6802 11.1163 10.5768 11.2508C10.0528 11.9321 9.7707 12.7685 9.77499 13.628C9.77782 14.3222 9.95915 14.9979 10.2425 15.6298C10.8219 16.9076 11.7753 18.2605 13.0333 19.5143C13.3365 19.816 13.634 20.1192 13.9542 20.4011C15.5173 21.7773 17.38 22.7698 19.3942 23.2996L20.1988 23.4228C20.4609 23.437 20.723 23.4172 20.9865 23.4044C21.3991 23.3831 21.8019 23.2714 22.1666 23.0772C22.3521 22.9816 22.5331 22.8776 22.7092 22.7655C22.7092 22.7655 22.7701 22.7258 22.8862 22.638C23.0775 22.4963 23.1951 22.3958 23.3537 22.23C23.4713 22.1082 23.5733 21.9651 23.6512 21.8022C23.7617 21.5713 23.8722 21.1307 23.9176 20.7638C23.9516 20.4833 23.9417 20.3303 23.9374 20.2353C23.9317 20.0838 23.8057 19.9265 23.6682 19.8599L22.8437 19.4902C22.8437 19.4902 21.6112 18.9533 20.8576 18.6104C20.7787 18.576 20.6942 18.5563 20.6082 18.5523C20.5113 18.5424 20.4134 18.5533 20.321 18.5843C20.2286 18.6154 20.144 18.6658 20.0727 18.7323C20.0657 18.7294 19.9707 18.8102 18.9465 20.0512C18.8877 20.1302 18.8067 20.1899 18.7139 20.2227C18.621 20.2555 18.5205 20.2599 18.4252 20.2353C18.3329 20.2106 18.2424 20.1794 18.1546 20.1418C17.9789 20.0682 17.918 20.0398 17.7976 19.9888C16.9845 19.634 16.2317 19.1546 15.5663 18.5679C15.3878 18.4121 15.2221 18.2421 15.0521 18.0778C14.4947 17.544 14.009 16.9402 13.6071 16.2814L13.5235 16.1468C13.4635 16.0564 13.4149 15.9589 13.379 15.8564C13.3252 15.6482 13.4654 15.481 13.4654 15.481C13.4654 15.481 13.8097 15.1042 13.9697 14.9002C14.1256 14.7018 14.2573 14.5092 14.3423 14.3718C14.5095 14.1026 14.5619 13.8263 14.4741 13.6124C14.0774 12.6434 13.6666 11.6787 13.2444 10.721C13.1608 10.5312 12.9129 10.3952 12.6877 10.3683C12.6112 10.3598 12.5347 10.3513 12.4582 10.3456C12.2679 10.3361 12.0773 10.338 11.8872 10.3513L12.1734 10.3413Z" fill="#525252"/>
</svg>
