<svg width="31" height="32" viewBox="0 0 31 32" fill="none" xmlns="http://www.w3.org/2000/svg">
<path d="M15.5009 0.472656C6.94114 0.472656 0 7.41198 0 15.9736C0 22.3187 3.8169 27.7724 9.27977 30.1694C9.23602 29.0885 9.27248 27.787 9.54772 26.6095C9.84665 25.3518 11.5418 18.1645 11.5418 18.1645C11.5418 18.1645 11.0479 17.1748 11.0479 15.7111C11.0479 13.4144 12.3803 11.6992 14.0372 11.6992C15.4462 11.6992 16.1279 12.7582 16.1279 14.0268C16.1279 15.4431 15.2238 17.563 14.759 19.5262C14.3708 21.1721 15.5829 22.5119 17.2052 22.5119C20.1417 22.5119 22.1194 18.7405 22.1194 14.2711C22.1194 10.8753 19.8318 8.33248 15.6704 8.33248C10.9695 8.33248 8.04028 11.8377 8.04028 15.753C8.04028 17.1055 8.43764 18.057 9.06103 18.7934C9.34903 19.1343 9.38731 19.2692 9.28341 19.6592C9.2105 19.9418 9.03916 20.6308 8.96807 20.9024C8.86417 21.2943 8.54701 21.4364 8.19339 21.2906C6.02611 20.4066 5.01811 18.0351 5.01811 15.3684C5.01811 10.9664 8.73111 5.68398 16.0951 5.68398C22.0137 5.68398 25.909 9.96933 25.909 14.5646C25.909 20.6453 22.5295 25.1877 17.5442 25.1877C15.8728 25.1877 14.2979 24.2836 13.7583 23.2574C13.7583 23.2574 12.8579 26.8282 12.6683 27.5172C12.3402 28.7111 11.6968 29.9069 11.108 30.8365C12.5024 31.2485 13.9752 31.4727 15.5009 31.4727C24.0607 31.4727 31 24.5333 31 15.9736C31 7.41198 24.0607 0.472656 15.5009 0.472656Z" fill="white"/>
</svg>
