<svg width="34" height="34" viewBox="0 0 34 34" fill="none" xmlns="http://www.w3.org/2000/svg">
<path d="M16.9997 3.22266C9.17967 3.22266 2.83301 9.38266 2.83301 16.9727C2.83301 24.5627 9.17967 30.7227 16.9997 30.7227C24.8197 30.7227 31.1663 24.5627 31.1663 16.9727C31.1663 9.38266 24.8197 3.22266 16.9997 3.22266ZM23.573 12.5727C23.3605 14.7452 22.4397 20.0252 21.9722 22.4589C21.7738 23.4902 21.3772 23.8339 21.0088 23.8752C20.1872 23.9439 19.5638 23.3527 18.7705 22.8439C17.5238 22.0464 16.8155 21.5514 15.6113 20.7814C14.2088 19.8877 15.1155 19.3927 15.923 18.5952C16.1355 18.3889 19.7622 15.1852 19.833 14.8964C19.8428 14.8527 19.8415 14.8073 19.8292 14.7641C19.8169 14.721 19.7938 14.6815 19.7622 14.6489C19.6772 14.5802 19.5638 14.6077 19.4647 14.6214C19.3372 14.6489 17.3538 15.9277 13.4863 18.4577C12.9197 18.8289 12.4097 19.0214 11.9563 19.0077C11.4463 18.9939 10.483 18.7327 9.76051 18.4989C8.86801 18.2239 8.17384 18.0727 8.23051 17.5914C8.25884 17.3439 8.61301 17.0964 9.27884 16.8352C13.4155 15.0889 16.1638 13.9339 17.538 13.3839C21.4763 11.7889 22.2838 11.5139 22.8222 11.5139C22.9355 11.5139 23.2047 11.5414 23.3747 11.6789C23.5163 11.7889 23.5588 11.9402 23.573 12.0502C23.5588 12.1327 23.5872 12.3802 23.573 12.5727Z" fill="white"/>
</svg>
