<svg width="34" height="35" viewBox="0 0 34 35" fill="none" xmlns="http://www.w3.org/2000/svg">
<path d="M17.0016 3.80566C24.8259 3.80566 31.1683 10.1481 31.1683 17.9723C31.1683 25.7966 24.8259 32.139 17.0016 32.139C14.4981 32.143 12.0386 31.4805 9.87581 30.2194L2.84065 32.139L4.75598 25.101C3.49386 22.9376 2.8308 20.477 2.83498 17.9723C2.83498 10.1481 9.1774 3.80566 17.0016 3.80566ZM12.1736 11.314L11.8903 11.3253C11.7069 11.3365 11.5276 11.3847 11.3633 11.467C11.2096 11.554 11.0694 11.6628 10.9468 11.79C10.7768 11.9501 10.6805 12.0889 10.5771 12.2235C10.0531 12.9048 9.77094 13.7412 9.77523 14.6007C9.77806 15.2948 9.9594 15.9706 10.2427 16.6024C10.8221 17.8802 11.7756 19.2332 13.0336 20.4869C13.3367 20.7887 13.6342 21.0918 13.9544 21.3737C15.5175 22.75 17.3803 23.7425 19.3944 24.2722L20.1991 24.3955C20.4611 24.4097 20.7232 24.3898 20.9867 24.3771C21.3993 24.3558 21.8022 24.2441 22.1668 24.0498C22.3523 23.9543 22.5334 23.8503 22.7094 23.7382C22.7094 23.7382 22.7703 23.6985 22.8865 23.6107C23.0777 23.469 23.1953 23.3684 23.354 23.2027C23.4716 23.0808 23.5736 22.9377 23.6515 22.7748C23.762 22.5439 23.8725 22.1033 23.9178 21.7364C23.9518 21.4559 23.9419 21.3029 23.9376 21.208C23.932 21.0564 23.8059 20.8992 23.6685 20.8326L22.844 20.4628C22.844 20.4628 21.6115 19.9259 20.8578 19.5831C20.7789 19.5486 20.6944 19.529 20.6085 19.525C20.5116 19.515 20.4136 19.526 20.3213 19.557C20.2289 19.588 20.1442 19.6385 20.073 19.7049C20.0659 19.7021 19.971 19.7828 18.9467 21.0238C18.8879 21.1028 18.807 21.1625 18.7141 21.1953C18.6213 21.2281 18.5208 21.2325 18.4254 21.208C18.3331 21.1833 18.2427 21.152 18.1548 21.1145C17.9791 21.0408 17.9182 21.0125 17.7978 20.9615C16.9847 20.6067 16.232 20.1273 15.5666 19.5406C15.3881 19.3847 15.2223 19.2147 15.0523 19.0504C14.495 18.5167 14.0093 17.9128 13.6073 17.2541L13.5237 17.1195C13.4637 17.0291 13.4152 16.9315 13.3792 16.8291C13.3254 16.6208 13.4656 16.4537 13.4656 16.4537C13.4656 16.4537 13.8099 16.0768 13.97 15.8728C14.1258 15.6745 14.2576 15.4818 14.3426 15.3444C14.5097 15.0752 14.5621 14.799 14.4743 14.5851C14.0776 13.6161 13.6668 12.6513 13.2446 11.6937C13.1611 11.5038 12.9131 11.3678 12.6879 11.3409C12.6114 11.3324 12.5349 11.3239 12.4584 11.3182C12.2681 11.3088 12.0775 11.3107 11.8875 11.3239L12.1736 11.314Z" fill="white"/>
</svg>
