<svg width="34" height="34" viewBox="0 0 34 34" fill="none" xmlns="http://www.w3.org/2000/svg">
<path d="M18.4563 2.83301C20.0501 2.83726 20.859 2.84576 21.5574 2.86559L21.8323 2.87551C22.1496 2.88684 22.4627 2.90101 22.8409 2.91801C24.3482 2.98884 25.3768 3.22684 26.2792 3.57676C27.2142 3.93659 28.0018 4.42392 28.7895 5.21017C29.5099 5.91836 30.0673 6.77501 30.4229 7.72051C30.7728 8.62292 31.0108 9.65142 31.0817 11.1602C31.0987 11.537 31.1128 11.8501 31.1242 12.1688L31.1327 12.4437C31.1539 13.1407 31.1624 13.9496 31.1653 15.5433L31.1667 16.6002V18.456C31.1701 19.4893 31.1593 20.5227 31.1341 21.5557L31.1256 21.8305C31.1143 22.1493 31.1001 22.4623 31.0831 22.8392C31.0123 24.3479 30.7714 25.375 30.4229 26.2788C30.0683 27.2249 29.5108 28.0817 28.7895 28.7892C28.0811 29.5093 27.2245 30.0667 26.2792 30.4226C25.3768 30.7725 24.3482 31.0105 22.8409 31.0813C22.5048 31.0972 22.1685 31.1113 21.8323 31.1238L21.5574 31.1323C20.859 31.1522 20.0501 31.1621 18.4563 31.1649L17.3995 31.1663H15.5451C14.5113 31.1699 13.4775 31.159 12.444 31.1338L12.1692 31.1253C11.8329 31.1125 11.4966 31.0979 11.1605 31.0813C9.65317 31.0105 8.62467 30.7725 7.72084 30.4226C6.77545 30.0675 5.91914 29.51 5.21192 28.7892C4.4909 28.0812 3.93299 27.2246 3.57709 26.2788C3.22717 25.3764 2.98917 24.3479 2.91834 22.8392C2.90255 22.503 2.88839 22.1668 2.87584 21.8305L2.86875 21.5557C2.84265 20.5227 2.83084 19.4893 2.83334 18.456V15.5433C2.82938 14.51 2.83977 13.4767 2.8645 12.4437L2.87442 12.1688C2.88575 11.8501 2.89992 11.537 2.91692 11.1602C2.98775 9.65142 3.22575 8.62434 3.57567 7.72051C3.93141 6.77404 4.49044 5.91712 5.21334 5.21017C5.92038 4.48976 6.77612 3.93232 7.72084 3.57676C8.62467 3.22684 9.65175 2.98884 11.1605 2.91801C11.5373 2.90101 11.8518 2.88684 12.1692 2.87551L12.444 2.86701C13.477 2.84184 14.5103 2.83098 15.5437 2.83442L18.4563 2.83301ZM17 9.91634C15.1214 9.91634 13.3197 10.6626 11.9913 11.991C10.6629 13.3194 9.91667 15.1211 9.91667 16.9997C9.91667 18.8783 10.6629 20.68 11.9913 22.0083C13.3197 23.3367 15.1214 24.083 17 24.083C18.8786 24.083 20.6803 23.3367 22.0087 22.0083C23.3371 20.68 24.0833 18.8783 24.0833 16.9997C24.0833 15.1211 23.3371 13.3194 22.0087 11.991C20.6803 10.6626 18.8786 9.91634 17 9.91634ZM17 12.7497C17.5581 12.7496 18.1108 12.8594 18.6265 13.0729C19.1421 13.2864 19.6107 13.5994 20.0054 13.994C20.4001 14.3886 20.7133 14.857 20.9269 15.3726C21.1406 15.8882 21.2506 16.4408 21.2507 16.999C21.2508 17.5571 21.141 18.1098 20.9275 18.6254C20.714 19.1411 20.401 19.6097 20.0064 20.0044C19.6118 20.3991 19.1434 20.7122 18.6278 20.9259C18.1122 21.1396 17.5595 21.2496 17.0014 21.2497C15.8742 21.2497 14.7932 20.8019 13.9962 20.0049C13.1992 19.2078 12.7514 18.1268 12.7514 16.9997C12.7514 15.8725 13.1992 14.7915 13.9962 13.9945C14.7932 13.1974 15.8742 12.7497 17.0014 12.7497M24.4389 7.79134C23.9693 7.79134 23.5188 7.97791 23.1868 8.31001C22.8547 8.6421 22.6681 9.09252 22.6681 9.56217C22.6681 10.0318 22.8547 10.4822 23.1868 10.8143C23.5188 11.1464 23.9693 11.333 24.4389 11.333C24.9086 11.333 25.359 11.1464 25.6911 10.8143C26.0232 10.4822 26.2098 10.0318 26.2098 9.56217C26.2098 9.09252 26.0232 8.6421 25.6911 8.31001C25.359 7.97791 24.9086 7.79134 24.4389 7.79134Z" fill="#525252"/>
</svg>
