<svg width="31" height="32" viewBox="0 0 31 32" fill="none" xmlns="http://www.w3.org/2000/svg">
<path d="M15.5009 0.5C6.94114 0.5 0 7.43932 0 16.0009C0 22.346 3.8169 27.7998 9.27977 30.1967C9.23602 29.1158 9.27248 27.8143 9.54772 26.6368C9.84665 25.3791 11.5418 18.1919 11.5418 18.1919C11.5418 18.1919 11.0479 17.2021 11.0479 15.7384C11.0479 13.4417 12.3803 11.7265 14.0372 11.7265C15.4462 11.7265 16.1279 12.7855 16.1279 14.0542C16.1279 15.4705 15.2238 17.5904 14.759 19.5535C14.3708 21.1995 15.5829 22.5392 17.2052 22.5392C20.1417 22.5392 22.1194 18.7679 22.1194 14.2984C22.1194 10.9026 19.8318 8.35982 15.6704 8.35982C10.9695 8.35982 8.04028 11.865 8.04028 15.7804C8.04028 17.1329 8.43764 18.0843 9.06103 18.8207C9.34903 19.1616 9.38731 19.2965 9.28341 19.6866C9.2105 19.9691 9.03916 20.6581 8.96807 20.9297C8.86417 21.3216 8.54701 21.4638 8.19339 21.318C6.02611 20.4339 5.01811 18.0625 5.01811 15.3957C5.01811 10.9937 8.73111 5.71132 16.0951 5.71132C22.0137 5.71132 25.909 9.99668 25.909 14.5919C25.909 20.6727 22.5295 25.2151 17.5442 25.2151C15.8728 25.2151 14.2979 24.311 13.7583 23.2847C13.7583 23.2847 12.8579 26.8556 12.6683 27.5446C12.3402 28.7385 11.6968 29.9342 11.108 30.8638C12.5024 31.2758 13.9752 31.5 15.5009 31.5C24.0607 31.5 31 24.5607 31 16.0009C31 7.43932 24.0607 0.5 15.5009 0.5Z" fill="#525252"/>
</svg>
