<svg width="29" height="33" viewBox="0 0 29 33" fill="none" xmlns="http://www.w3.org/2000/svg">
<path d="M4.14286 2.97266C1.85781 2.97266 0 4.76641 0 6.97266V26.9727C0 29.1789 1.85781 30.9727 4.14286 30.9727H24.8571C27.1422 30.9727 29 29.1789 29 26.9727V6.97266C29 4.76641 27.1422 2.97266 24.8571 2.97266H4.14286ZM23.3748 8.22266L16.6556 15.6352L24.5594 25.7227H18.371L13.529 19.6039L7.98147 25.7227H4.9067L12.092 17.7914L4.51183 8.22266H10.8556L15.2379 13.8164L20.3 8.22266H23.3748ZM20.9279 23.9477L9.92991 9.90391H8.09799L19.219 23.9477H20.9214H20.9279Z" fill="white"/>
</svg>
